<?xml version="1.0" encoding="utf-8"?>
<!-- Generator: Adobe Illustrator 22.0.1, SVG Export Plug-In . SVG Version: 6.00 Build 0)  -->
<svg version="1.1" id="Livello_1" xmlns="http://www.w3.org/2000/svg" xmlns:xlink="http://www.w3.org/1999/xlink" x="0px" y="0px"
	 viewBox="0 0 816.4 166.3" style="enable-background:new 0 0 816.4 166.3;" xml:space="preserve">
<style type="text/css">
	.st0{fill:none;}
	.st1{fill:#2C2925;}
</style>
<line class="st0" x1="154" y1="-185" x2="154" y2="410.3"/>
<line class="st0" x1="154" y1="-185" x2="154" y2="410.3"/>
<line class="st0" x1="154" y1="-185" x2="154" y2="410.3"/>
<line class="st0" x1="154" y1="-185" x2="154" y2="410.3"/>
<line class="st0" x1="154" y1="-185" x2="154" y2="410.3"/>
<line class="st0" x1="154" y1="-185" x2="154" y2="410.3"/>
<path class="st1" d="M87.2,105.9c0,7.7-2.8,14.5-8.3,19.9c-5.4,5.4-12.2,8.3-19.9,8.3s-14.4-2.8-19.9-8.3
	c-5.4-5.4-8.3-12.2-8.3-19.9c0-7.7,2.8-14.4,8.3-19.9c5.4-5.4,12.2-8.3,19.9-8.3s14.5,2.8,19.9,8.3C84.4,91.4,87.2,98.2,87.2,105.9
	 M105.9,152.8v-46.9c0-12.9-4.5-24-13.7-33.2C83.1,63.5,72,59,59,59c-12.9,0-24,4.5-33.2,13.7c-9.2,9.2-13.7,20.3-13.7,33.2
	c0,13,4.5,24,13.7,33.2c9.2,9.2,20.3,13.7,33.2,13.7c10.7,0,20.1-3.1,28.2-9.3l9.3,9.3H105.9z"/>
<path class="st1" d="M276.8,15.4c-2.3,2.3-3.4,4.9-3.4,8.1c0,3.2,1.1,5.8,3.4,7.9c2.1,2.3,4.7,3.4,7.9,3.4c3.2,0,5.8-1.1,8.1-3.4
	c2.3-2.1,3.4-4.7,3.4-7.9c0-3.2-1.1-6-3.4-8.1c-2.1-2.3-4.9-3.4-8.1-3.4C281.5,12,278.9,13.2,276.8,15.4"/>
<path class="st1" d="M445.7,15.4c-2.3,2.3-3.4,4.9-3.4,8.1c0,3.2,1.1,5.8,3.4,7.9c2.1,2.3,4.7,3.4,7.9,3.4s5.8-1.1,8.1-3.4
	c2.3-2.1,3.4-4.7,3.4-7.9c0-3.2-1.1-6-3.4-8.1c-2.1-2.3-4.9-3.4-8.1-3.4S447.8,13.2,445.7,15.4"/>
<rect x="124.7" y="12" class="st1" width="18.8" height="140.8"/>
<path class="st1" d="M237.3,105.9c0,7.7-2.8,14.5-8.3,19.9c-5.4,5.4-12.2,8.3-19.9,8.3c-7.7,0-14.4-2.8-19.9-8.3
	c-5.4-5.4-8.3-12.2-8.3-19.9c0-7.7,2.8-14.5,8.3-19.9c5.4-5.4,12.2-8.3,19.9-8.3c7.7,0,14.5,2.8,19.9,8.3
	C234.5,91.4,237.3,98.2,237.3,105.9 M256.1,105.9c0-12.9-4.5-24-13.7-33.2c-9.2-9.2-20.3-13.7-33.2-13.7c-10.3,0-19.7,3.2-28.2,9.4
	V12h-18.8v140.8h9.4l9.4-9.4c8.3,6.2,17.6,9.4,28.2,9.4c13,0,24-4.5,33.2-13.7C251.6,129.9,256.1,118.8,256.1,105.9"/>
<rect x="275.4" y="59" class="st1" width="18.8" height="93.8"/>
<path class="st1" d="M312.9,59v93.8h18.8v-46.9c0-7.7,2.8-14.5,8.3-19.9c5.4-5.4,12.2-8.3,19.9-8.3V59c-10.3,0-19.7,3.2-28.2,9.4
	l-9.4-9.4H312.9z"/>
<path class="st1" d="M378.6,59v93.8h18.8v-46.9c0-7.7,2.8-14.5,8.3-19.9c5.4-5.4,12.2-8.3,19.9-8.3V59c-10.3,0-19.7,3.2-28.2,9.4
	L388,59H378.6z"/>
<rect x="444.3" y="59" class="st1" width="18.8" height="93.8"/>
<path class="st1" d="M500.6,152.8V77.7h21V59h-21V52c0-5.8,2.1-10.9,6.2-15c4.1-4.1,9-6.2,14.8-6.2V12c-11.1,0-20.5,3.9-28.2,11.6
	c-7.7,7.7-11.6,17.3-11.6,28.3v100.8H500.6z"/>
<rect x="540.4" y="59" class="st1" width="18.8" height="93.8"/>
<path class="st1" d="M624.9,59c-12.9,0-24,4.5-33.2,13.7c-9.2,9.2-13.7,20.3-13.7,33.2c0,12.9,4.5,24,13.7,33.2
	c9.2,9.2,20.3,13.7,33.2,13.7c12.9,0,24-4.5,33.2-13.7l-13.3-13.3c-5.4,5.4-12.2,8.3-19.9,8.3c-7.7,0-14.5-2.8-19.9-8.3
	c-5.4-5.4-8.3-12.2-8.3-19.9c0-7.7,2.8-14.5,8.3-19.9c5.4-5.4,12.2-8.3,19.9-8.3c7.7,0,14.5,2.8,19.9,8.3l13.3-13.3
	C648.9,63.5,637.8,59,624.9,59"/>
<rect x="676.3" y="59" class="st1" width="18.8" height="93.8"/>
<path class="st1" d="M788.3,105.9c0,7.7-2.8,14.5-8.3,19.9c-5.4,5.4-12.2,8.3-19.9,8.3c-7.7,0-14.4-2.8-19.9-8.3
	c-5.4-5.4-8.3-12.2-8.3-19.9c0-7.7,2.8-14.5,8.3-19.9c5.4-5.4,12.2-8.3,19.9-8.3c7.7,0,14.5,2.8,19.9,8.3
	C785.5,91.4,788.3,98.2,788.3,105.9 M807.1,105.9c0-12.9-4.5-24-13.7-33.2c-9.2-9.2-20.3-13.7-33.2-13.7c-12.9,0-24,4.5-33.2,13.7
	c-9.2,9.2-13.7,20.3-13.7,33.2c0,12.9,4.5,24,13.7,33.2c9.2,9.2,20.3,13.7,33.2,13.7c13,0,24-4.5,33.2-13.7
	C802.6,129.9,807.1,118.8,807.1,105.9"/>
<path class="st1" d="M677.7,15.4c-2.3,2.3-3.4,4.9-3.4,8.1c0,3.2,1.1,5.8,3.4,7.9c2.1,2.3,4.7,3.4,7.9,3.4s5.8-1.1,8.1-3.4
	c2.3-2.1,3.4-4.7,3.4-7.9c0-3.2-1.1-6-3.4-8.1c-2.1-2.3-4.9-3.4-8.1-3.4S679.7,13.2,677.7,15.4"/>
<path class="st1" d="M541.8,15.4c-2.3,2.3-3.4,4.9-3.4,8.1c0,3.2,1.1,5.8,3.4,7.9c2.1,2.3,4.7,3.4,7.9,3.4s5.8-1.1,8.1-3.4
	c2.3-2.1,3.4-4.7,3.4-7.9c0-3.2-1.1-6-3.4-8.1c-2.1-2.3-4.9-3.4-8.1-3.4S543.9,13.2,541.8,15.4"/>
</svg>
